# xmcd
#
# Track frame offsets:
#	150
#	18952
#	36997
#	50672
#	68120
#	84780
#	104400
#	127287
#	143142
#	159127
#	171205
#	190562
#
# Disc length: 2866 seconds
#
# Revision: 2
# Processed by: cddbd v1.5.2PL0 Copyright (c) Steve Scherf et al.
# Submitted via: audiograbber 1.83.01
#
DISCID=9a0b300c
DTITLE=Jamie Warren - Fallen Angel
DYEAR=1996
DGENRE=Country
TTITLE0=Ready to Run
TTITLE1=Fallen Angel
TTITLE2=You Can Break My Heart Anytime
TTITLE3=Watching Her Sleep
TTITLE4=One Step Back
TTITLE5=Still Only Me
TTITLE6=Long Way Up
TTITLE7=I Never Knew
TTITLE8=What Goes Around Comes Around
TTITLE9=The First Time Two Wrongs Ever Made a Right
TTITLE10=Rainman
TTITLE11=The Secret
EXTD=
EXTT0=
EXTT1=
EXTT2=
EXTT3=
EXTT4=
EXTT5=
EXTT6=
EXTT7=
EXTT8=
EXTT9=
EXTT10=
EXTT11=
PLAYORDER=
